<?xml version="1.0" encoding="UTF-8" standalone="no"?>
<!DOCTYPE svg PUBLIC "-//W3C//DTD SVG 1.1//EN" "http://www.w3.org/Graphics/SVG/1.1/DTD/svg11.dtd">
<!-- Created with Vectornator (http://vectornator.io/) -->
<svg height="100%" stroke-miterlimit="10" style="fill-rule:nonzero;clip-rule:evenodd;stroke-linecap:round;stroke-linejoin:round;" version="1.1" viewBox="0 0 24 24" width="100%" xml:space="preserve" xmlns="http://www.w3.org/2000/svg" xmlns:vectornator="http://vectornator.io" xmlns:xlink="http://www.w3.org/1999/xlink">
<defs>
<path d="M4.9867 3L19.0133 3C20.1179 3 21.0133 3.89543 21.0133 5L21.0133 19C21.0133 20.1046 20.1179 21 19.0133 21L4.9867 21C3.88213 21 2.9867 20.1046 2.9867 19L2.9867 5C2.9867 3.89543 3.88213 3 4.9867 3Z" id="Fill"/>
</defs>
<g id="Untitled" vectornator:layerName="Untitled">
<path d="M4.1105 2.02L19.8895 2.02C21.0493 2.02 21.9895 2.9602 21.9895 4.12L21.9895 19.88C21.9895 21.0398 21.0493 21.98 19.8895 21.98L4.1105 21.98C2.9507 21.98 2.0105 21.0398 2.0105 19.88L2.0105 4.12C2.0105 2.9602 2.9507 2.02 4.1105 2.02Z" fill="#4C566B" fill-rule="nonzero" opacity="1" stroke="#4C566B" stroke-linecap="butt" stroke-linejoin="round" stroke-width="0.3"/>
<path d="M21 15.597C20.829 15.627 20.64 15.642 20.55 15.656C20.4293 15.6792 20.3069 15.6925 20.184 15.696C19.889 15.696 19.494 15.349 19.232 15.119C19.1464 15.011 19.0798 14.8893 19.035 14.759C18.9 14.446 18.674 13.92 18.073 13.92C17.7098 13.9216 17.3602 14.0581 17.092 14.303C16.9859 14.4175 16.838 14.4842 16.682 14.488C16.6048 14.4737 16.5304 14.4466 16.462 14.408C16.2738 14.3074 16.0652 14.251 15.852 14.243C15.3153 14.1892 14.8348 14.5762 14.773 15.112L14.773 15.807C14.773 15.897 14.727 15.957 14.557 16.127C14.2651 16.3691 14.089 16.7232 14.072 17.102C14.0959 17.3597 14.2133 17.5998 14.402 17.777C14.435 17.815 14.481 17.87 14.503 17.874C14.3732 17.9403 14.2354 17.9897 14.093 18.021C13.683 18.134 12.997 18.323 12.997 19.075C13.0163 19.3267 13.1199 19.5645 13.291 19.75L13.371 19.857C13.327 19.971 13.243 20.16 13.154 20.362C13.058 20.583 12.96 20.812 12.884 21L10.407 21L10.407 20.976C10.4168 20.716 10.4744 20.4601 10.577 20.221L10.625 20.081C10.7359 19.7861 10.7944 19.4741 10.798 19.159C10.798 18.354 9.988 18.165 9.504 18.052L9.075 17.952C8.915 17.633 8.994 17.504 9.405 17.093C9.7956 16.789 10.042 16.3361 10.085 15.843C10.1293 15.2863 9.75197 14.7838 9.205 14.671C8.93503 14.6411 8.66201 14.685 8.415 14.798C8.30232 14.8512 8.1796 14.8799 8.055 14.882C8.00451 14.8844 7.95444 14.8718 7.911 14.846C7.92399 14.688 7.9785 14.5362 8.069 14.406C8.23569 14.1419 8.3289 13.8381 8.339 13.526C8.33571 13.3353 8.30679 13.146 8.253 12.963C8.21955 12.8564 8.20071 12.7457 8.197 12.634C8.18064 12.4186 8.33824 12.2291 8.553 12.206C8.698 12.206 8.781 12.315 9.005 12.715C9.26058 13.1623 9.75146 13.4218 10.265 13.381C11.221 13.381 11.832 12.305 11.832 11.565C11.832 11.46 11.906 11.35 11.976 11.35C12.054 11.35 12.122 11.395 12.268 11.506C12.5031 11.7152 12.8036 11.8361 13.118 11.848C13.6756 11.813 14.1598 11.4516 14.352 10.927C14.4485 10.7042 14.6024 10.5109 14.798 10.367C15.5872 9.83889 15.8992 8.8305 15.546 7.949C15.592 7.874 15.696 7.765 15.687 7.749C16.0307 7.80628 16.3811 7.69592 16.63 7.452C16.8517 7.13389 16.9096 6.72953 16.786 6.362C16.7646 6.27571 16.7556 6.18683 16.759 6.098C16.8255 5.98831 16.914 5.89364 17.019 5.82C17.365 5.58746 17.5831 5.20711 17.609 4.791C17.6016 4.53998 17.5255 4.29581 17.389 4.085C17.3332 4.01031 17.2978 3.92246 17.286 3.83C17.286 3.779 17.387 3.457 18.207 3.012L18.231 3L21 3L21 15.597Z" fill="#E9B824" fill-rule="nonzero" opacity="1" stroke="none"/>
<path d="M3 3L16.709 3C16.4965 3.22542 16.3732 3.5204 16.362 3.83C16.3691 4.08247 16.4455 4.32812 16.583 4.54C16.6379 4.6136 16.673 4.7 16.685 4.791C16.685 4.876 16.621 4.944 16.419 5.117C16.1794 5.29115 15.9936 5.52923 15.883 5.804C15.8467 5.91469 15.8285 6.03051 15.829 6.147C15.8339 6.27758 15.8506 6.40745 15.879 6.535C15.897 6.633 15.933 6.815 15.969 6.815C15.8981 6.83481 15.8236 6.83857 15.751 6.826C15.4211 6.84454 15.1151 7.0041 14.911 7.264C14.6829 7.49083 14.5818 7.81581 14.641 8.132C14.792 8.874 14.792 9.32 14.359 9.553C14.0043 9.77374 13.722 10.0936 13.547 10.473C13.333 10.853 13.264 10.924 13.118 10.924C13.039 10.924 12.972 10.879 12.825 10.768C12.5905 10.5586 12.2902 10.4377 11.976 10.426C11.367 10.4467 10.8895 10.956 10.908 11.565C10.908 11.863 10.63 12.457 10.264 12.457C9.918 12.457 9.85 12.333 9.799 12.241C9.6084 11.704 9.12089 11.3284 8.553 11.281C7.82665 11.3028 7.25451 11.9076 7.273 12.634C7.27629 12.8247 7.30521 13.014 7.359 13.197C7.39239 13.3033 7.41123 13.4136 7.415 13.525C7.40201 13.683 7.34751 13.8348 7.257 13.965C7.09009 14.2294 6.99688 14.5335 6.987 14.846C7.01926 15.4048 7.49589 15.8333 8.055 15.806C8.2941 15.8043 8.53043 15.7546 8.75 15.66C8.85065 15.6098 8.96066 15.5812 9.073 15.576L9.08 15.576C9.13164 15.6555 9.1594 15.7482 9.16 15.843C9.16 16.019 9.006 16.186 8.753 16.439C8.12803 16.8662 7.91272 17.6882 8.248 18.367C8.49239 18.7073 8.87517 18.9216 9.293 18.952C9.477 18.994 9.818 19.073 9.873 19.159C9.8695 19.3715 9.82854 19.5817 9.752 19.78L9.706 19.91C9.56693 20.2487 9.49133 20.61 9.483 20.976L9.483 21L3 21L3 3Z" fill="#2D9596" fill-rule="nonzero" opacity="1" stroke="none"/>
<path d="M13.885 21L14.002 20.732C14.276 20.102 14.312 20.016 14.312 19.842C14.2929 19.5974 14.1914 19.3664 14.024 19.187C13.986 19.137 13.937 19.057 13.916 19.07C14.0473 18.9951 14.1898 18.9417 14.338 18.912C14.722 18.806 15.436 18.61 15.436 17.855C15.412 17.5954 15.294 17.3536 15.104 17.175C15.06 17.125 14.997 17.054 14.996 17.102C14.996 17.01 15.042 16.95 15.213 16.779C15.5043 16.5378 15.68 16.1848 15.697 15.807L15.697 15.198C15.8239 15.1592 15.9613 15.1771 16.074 15.247C16.2613 15.348 16.4693 15.4045 16.682 15.412C17.0453 15.4107 17.3953 15.2746 17.664 15.03C17.7638 14.9269 17.8924 14.8565 18.033 14.828C18.0965 14.9197 18.1479 15.0192 18.186 15.124C18.2775 15.3838 18.427 15.6195 18.623 15.813C19.0318 16.258 19.5847 16.5442 20.184 16.621C20.3551 16.6167 20.5256 16.5993 20.694 16.569C20.7953 16.552 20.8974 16.5406 21 16.535L21 21L13.885 21Z" fill="#C24914" fill-rule="nonzero" opacity="1" stroke="none"/>
<g opacity="1">
<use fill="#5309cd" fill-opacity="0" fill-rule="nonzero" stroke="none" xlink:href="#Fill"/>
<mask height="19.8" id="StrokeMask" maskUnits="userSpaceOnUse" width="19.8266" x="2.0867" y="2.1">
<rect fill="#ffffff" height="19.8" stroke="none" width="19.8266" x="2.0867" y="2.1"/>
<use fill="#000000" fill-rule="evenodd" stroke="none" xlink:href="#Fill"/>
</mask>
<use fill="none" mask="url(#StrokeMask)" stroke="#4C566B" stroke-linecap="butt" stroke-linejoin="round" stroke-width="1.8" xlink:href="#Fill"/>
</g>
<path d="M10.5 5.5C10.5 4.94772 10.9477 4.5 11.5 4.5C12.0523 4.5 12.5 4.94772 12.5 5.5C12.5 6.05228 12.0523 6.5 11.5 6.5C10.9477 6.5 10.5 6.05228 10.5 5.5Z" fill="#4C566B" fill-rule="nonzero" opacity="1" stroke="none"/>
<path d="M6.5 9.5C5.94772 9.5 5.5 9.05228 5.5 8.5C5.5 7.94772 5.94772 7.5 6.5 7.5C7.05228 7.5 7.5 7.94772 7.5 8.5C7.5 9.05228 7.05228 9.5 6.5 9.5Z" fill="#4C566B" fill-rule="nonzero" opacity="1" stroke="none"/>
<path d="M18.5 18.5C18.5 19.0523 18.0523 19.5 17.5 19.5C16.9477 19.5 16.5 19.0523 16.5 18.5C16.5 17.9477 16.9477 17.5 17.5 17.5C18.0523 17.5 18.5 17.9477 18.5 18.5Z" fill="#4C566B" fill-rule="nonzero" opacity="1" stroke="none"/>
<path d="M11.2655 14.829C11.2655 14.2767 11.7132 13.829 12.2655 13.829C12.8178 13.829 13.2655 14.2767 13.2655 14.829C13.2655 15.3812 12.8178 15.829 12.2655 15.829C11.7132 15.829 11.2655 15.3812 11.2655 14.829Z" fill="#4C566B" fill-rule="nonzero" opacity="1" stroke="none"/>
<path d="M17.5686 8.61995C17.5686 8.06766 18.0163 7.61995 18.5686 7.61995C19.1209 7.61995 19.5686 8.06766 19.5686 8.61995C19.5686 9.17223 19.1209 9.61995 18.5686 9.61995C18.0163 9.61995 17.5686 9.17223 17.5686 8.61995Z" fill="#4C566B" fill-rule="nonzero" opacity="1" stroke="none"/>
</g>
</svg>
